<svg height="512pt" viewBox="0 0 512.00202 512" width="512pt" xmlns="http://www.w3.org/2000/svg"><path d="m321.75 248.121094h-300.460938c-7.550781 0-13.730468-6.179688-13.730468-13.730469v-213.101563c0-7.550781 6.179687-13.730468 13.730468-13.730468h300.460938c7.554688 0 13.734375 6.179687 13.734375 13.730468v213.101563c0 7.550781-6.179687 13.730469-13.734375 13.730469zm0 0" fill="#fff4f1"/><path d="m321.75 7.558594h-23.175781c7.550781 0 13.730469 6.179687 13.730469 13.730468v213.101563c0 7.550781-6.179688 13.730469-13.730469 13.730469h23.175781c7.554688 0 13.734375-6.179688 13.734375-13.730469v-213.101563c0-7.550781-6.179687-13.730468-13.734375-13.730468zm0 0" fill="#ecedef"/><path d="m335.484375 42.523438v-21.234376c0-7.550781-6.179687-13.730468-13.734375-13.730468h-300.460938c-7.550781 0-13.730468 6.179687-13.730468 13.730468v21.230469h327.925781zm0 0" fill="#f9cd45"/><path d="m326.621094 8.472656c-1.519532-.582031-3.15625-.914062-4.871094-.914062h-23.175781c7.550781 0 13.730469 6.179687 13.730469 13.730468v21.234376h23.179687v-21.234376c0-5.835937-3.699219-10.839843-8.863281-12.816406zm0 0" fill="#f8b53c"/><path d="m248.683594 305.652344c-.496094-7.726563 3.515625-24.636719-14.8125-24.636719h-124.628906c-18.75 0-14.316407 16.910156-14.8125 24.636719zm0 0" fill="#d0cfd1"/><path d="m126.882812 227.054688h89.277344v53.960937h-89.277344zm0 0" fill="#fff4f1"/><path d="m7.558594 213.15625v21.234375c0 7.550781 6.179687 13.730469 13.730468 13.730469h300.460938c7.554688 0 13.734375-6.179688 13.734375-13.730469v-21.234375zm0 0" fill="#f8b53c"/><path d="m417.640625 504.261719c-.492187-7.730469 3.519531-24.636719-14.8125-24.636719h-124.628906c-18.75 0-14.316407 16.90625-14.808594 24.636719zm0 0" fill="#d0cfd1"/><path d="m295.839844 425.664062h89.277344v53.960938h-89.277344zm0 0" fill="#fff4f1"/><path d="m360.933594 425.664062h24.183594v53.960938h-24.183594zm0 0" fill="#d0cfd1"/><path d="m490.710938 446.730469h-300.460938c-7.554688 0-13.730469-6.179688-13.730469-13.730469v-213.101562c0-7.550782 6.179688-13.730469 13.730469-13.730469h300.460938c7.554687 0 13.730468 6.179687 13.730468 13.730469v213.101562c0 7.550781-6.179687 13.730469-13.730468 13.730469zm0 0" fill="#fff4f1"/><path d="m490.710938 206.167969h-23.179688c7.554688 0 13.734375 6.179687 13.734375 13.730469v213.101562c0 7.550781-6.179687 13.730469-13.734375 13.730469h23.179688c7.550781 0 13.730468-6.179688 13.730468-13.730469v-213.101562c0-7.550782-6.179687-13.730469-13.730468-13.730469zm0 0" fill="#ecedef"/><path d="m176.515625 411.765625v21.230469c0 7.554687 6.179687 13.734375 13.734375 13.734375h300.460938c7.550781 0 13.730468-6.179688 13.730468-13.734375v-21.230469zm0 0" fill="#4890e3"/><path d="m481.265625 433c0 7.550781-6.179687 13.730469-13.730469 13.730469h23.175782c7.554687 0 13.730468-6.179688 13.730468-13.730469v-21.234375h-23.175781zm0 0" fill="#2970d6"/><path d="m504.441406 241.132812v-21.230468c0-7.554688-6.179687-13.734375-13.730468-13.734375h-300.460938c-7.554688 0-13.734375 6.179687-13.734375 13.734375v21.230468zm0 0" fill="#4890e3"/><path d="m504.164062 217.140625c-.710937-3.453125-2.742187-6.4375-5.523437-8.421875-.175781-.125-.355469-.246094-.539063-.363281-.640624-.414063-1.3125-.78125-2.019531-1.085938-1.652343-.707031-3.46875-1.101562-5.371093-1.101562h-23.179688c7.554688 0 13.734375 6.179687 13.734375 13.730469v21.230468h23.175781v-21.230468c0-.941407-.09375-1.867188-.277344-2.757813zm0 0" fill="#2970d6"/><g fill="#d0cfd1"><path d="m107.132812 147.105469h-16.335937c-6.890625 0-12.527344-5.640625-12.527344-12.527344v-16.339844c0-6.886719 5.636719-12.527343 12.527344-12.527343h16.335937c6.890626 0 12.527344 5.640624 12.527344 12.527343v16.339844c-.003906 6.890625-5.636718 12.527344-12.527344 12.527344zm0 0"/><path d="m180.824219 147.105469h-16.335938c-6.890625 0-12.527343-5.640625-12.527343-12.527344v-16.339844c0-6.886719 5.636718-12.527343 12.527343-12.527343h16.335938c6.890625 0 12.527343 5.640624 12.527343 12.527343v16.339844c0 6.890625-5.636718 12.527344-12.527343 12.527344zm0 0"/><path d="m250.855469 147.105469h-16.335938c-6.890625 0-12.527343-5.640625-12.527343-12.527344v-16.339844c0-6.886719 5.636718-12.527343 12.527343-12.527343h16.335938c6.890625 0 12.527343 5.640624 12.527343 12.527343v16.339844c0 6.890625-5.636718 12.527344-12.527343 12.527344zm0 0"/></g><path d="m276.089844 347.144531h-16.335938c-6.890625 0-12.527344-5.636719-12.527344-12.527343v-16.335938c0-6.890625 5.636719-12.527344 12.527344-12.527344h16.335938c6.890625 0 12.527344 5.636719 12.527344 12.527344v16.335938c0 6.890624-5.636719 12.527343-12.527344 12.527343zm0 0" fill="#00bf9e"/><path d="m349.785156 347.144531h-16.335937c-6.890625 0-12.527344-5.636719-12.527344-12.527343v-16.335938c0-6.890625 5.636719-12.527344 12.527344-12.527344h16.335937c6.890625 0 12.527344 5.636719 12.527344 12.527344v16.335938c0 6.890624-5.636719 12.527343-12.527344 12.527343zm0 0" fill="#d0cfd1"/><path d="m349.785156 347.144531h-16.335937c-6.890625 0-12.527344-5.636719-12.527344-12.527343v-16.335938c0-6.890625 5.636719-12.527344 12.527344-12.527344h16.335937c6.890625 0 12.527344 5.636719 12.527344 12.527344v16.335938c0 6.890624-5.636719 12.527343-12.527344 12.527343zm0 0" fill="#00bf9e"/><path d="m419.8125 347.144531h-16.335938c-6.890624 0-12.527343-5.636719-12.527343-12.527343v-16.335938c0-6.890625 5.636719-12.527344 12.527343-12.527344h16.335938c6.890625 0 12.527344 5.636719 12.527344 12.527344v16.335938c0 6.890624-5.636719 12.527343-12.527344 12.527343zm0 0" fill="#00bf9e"/><path d="m493.167969 96.980469c0 33.59375-27.234375 60.828125-60.828125 60.828125s-60.828125-27.234375-60.828125-60.828125 27.234375-60.828125 60.828125-60.828125 60.828125 27.234375 60.828125 60.828125zm0 0" fill="#00bf9e"/><path d="m432.339844 36.152344c-4.140625 0-8.183594.417968-12.09375 1.207031 27.800781 5.605469 48.734375 30.167969 48.734375 59.621094s-20.933594 54.011719-48.734375 59.621093c3.910156.789063 7.953125 1.207032 12.09375 1.207032 33.59375 0 60.828125-27.234375 60.828125-60.828125s-27.234375-60.828125-60.828125-60.828125zm0 0" fill="#00a983"/><path d="m214.433594 118.851562h-13.523438v-.609374c0-11.078126-9.007812-20.085938-20.085937-20.085938h-16.335938c-11.074219 0-20.085937 9.007812-20.085937 20.085938v.609374h-17.179688s-.003906 0-.007812 0v-.613281c0-11.074219-9.007813-20.082031-20.085938-20.082031h-16.332031c-11.078125 0-20.085937 9.007812-20.085937 20.082031v.613281h-17.179688c-4.175781 0-7.558594 3.382813-7.558594 7.554688 0 4.175781 3.382813 7.558594 7.558594 7.558594h17.179688v.609375c0 11.078125 9.007812 20.085937 20.085937 20.085937h16.335937c11.074219 0 20.085938-9.007812 20.085938-20.085937v-.609375h.007812 17.179688v.609375c0 11.074219 9.007812 20.085937 20.085938 20.085937h16.335937c11.074219 0 20.085937-9.011718 20.085937-20.085937v-.609375h13.519532v.609375c0 11.074219 9.011718 20.085937 20.085937 20.085937h16.335938c11.074219 0 20.085937-9.011718 20.085937-20.085937v-.609375h18.570313c4.175781 0 7.558593-3.382813 7.558593-7.558594 0-4.171875-3.382812-7.558594-7.558593-7.558594h-18.570313v-.609375c0-11.074219-9.007812-20.085937-20.085937-20.085937h-16.335938c-11.074219 0-20.085937 9.011718-20.085937 20.085937zm-102.332032 15.726563c0 2.691406-2.277343 4.96875-4.972656 4.96875h-16.332031c-2.695313 0-4.972656-2.277344-4.972656-4.96875v-16.335937c0-2.695313 2.277343-4.96875 4.972656-4.96875h16.335937c2.691407 0 4.96875 2.273437 4.96875 4.96875zm73.691407 0c0 2.691406-2.273438 4.96875-4.96875 4.96875h-16.335938c-2.695312 0-4.96875-2.277344-4.96875-4.96875v-16.335937c0-2.695313 2.273438-4.96875 4.96875-4.96875h16.335938c2.695312 0 4.96875 2.273437 4.96875 4.96875zm43.753906-16.335937c0-2.695313 2.277344-4.96875 4.972656-4.96875h16.335938c2.691406 0 4.96875 2.273437 4.96875 4.96875v16.335937c0 2.691406-2.277344 4.96875-4.96875 4.96875h-16.335938c-2.695312 0-4.972656-2.277344-4.972656-4.96875zm0 0"/><path d="m276.089844 298.195312h-16.335938c-11.074218 0-20.085937 9.011719-20.085937 20.085938v.609375h-17.179688c-4.175781 0-7.558593 3.382813-7.558593 7.558594 0 4.171875 3.382812 7.558593 7.558593 7.558593h17.179688v.609376c0 11.074218 9.007812 20.085937 20.085937 20.085937h16.335938c11.074218 0 20.085937-9.011719 20.085937-20.085937v-.613282h.007813 17.179687v.613282c0 11.074218 9.011719 20.082031 20.085938 20.082031h16.335937c11.078125 0 20.085938-9.007813 20.085938-20.082031v-.613282h13.523437v.613282c0 11.074218 9.007813 20.082031 20.085938 20.082031h16.335937c11.074219 0 20.085938-9.007813 20.085938-20.082031v-.613282h18.570312c4.175782 0 7.558594-3.382812 7.558594-7.554687 0-4.175781-3.382812-7.558594-7.558594-7.558594h-18.570312v-.609375c0-11.078125-9.011719-20.085938-20.085938-20.085938h-16.335937c-11.078125 0-20.085938 9.007813-20.085938 20.085938v.609375h-13.523437v-.609375c0-11.078125-9.007813-20.085938-20.085938-20.085938h-16.335937c-11.074219 0-20.085938 9.007813-20.085938 20.085938v.609375h-17.179687s-.003906 0-.007813 0v-.613281c0-11.070313-9.011719-20.082032-20.085937-20.082032zm122.417968 20.085938c0-2.695312 2.273438-4.96875 4.96875-4.96875h16.335938c2.695312 0 4.96875 2.273438 4.96875 4.96875v16.335938c0 2.695312-2.273438 4.96875-4.96875 4.96875h-16.335938c-2.695312 0-4.96875-2.273438-4.96875-4.96875zm-70.027343 0c0-2.695312 2.273437-4.96875 4.96875-4.96875h16.335937c2.695313 0 4.96875 2.273438 4.96875 4.96875v16.335938c0 2.695312-2.273437 4.96875-4.96875 4.96875h-16.335937c-2.695313 0-4.96875-2.273438-4.96875-4.96875zm-47.421875 16.335938c0 2.695312-2.277344 4.96875-4.96875 4.96875h-16.335938c-2.695312 0-4.96875-2.273438-4.96875-4.96875v-16.335938c0-2.695312 2.273438-4.96875 4.96875-4.96875h16.335938c2.691406 0 4.96875 2.273438 4.96875 4.96875zm0 0"/><path d="m432.339844 165.367188c37.707031 0 68.386718-30.679688 68.386718-68.386719s-30.679687-68.386719-68.386718-68.386719c-37.707032 0-68.382813 30.679688-68.382813 68.386719-.003906 37.707031 30.675781 68.386719 68.382813 68.386719zm0-121.65625c29.375 0 53.269531 23.894531 53.269531 53.269531 0 29.371093-23.894531 53.269531-53.269531 53.269531-29.371094 0-53.269532-23.898438-53.269532-53.269531 0-29.375 23.898438-53.269531 53.269532-53.269531zm0 0"/><path d="m420.582031 115.753906c1.378907 1.71875 3.433594 2.746094 5.632813 2.824219.085937 0 .175781.003906.261718.003906 2.105469 0 4.121094-.878906 5.550782-2.433593l25.9375-28.085938c2.832031-3.066406 2.640625-7.847656-.425782-10.679688-3.066406-2.832031-7.847656-2.640624-10.679687.425782l-19.984375 21.640625-8.710938-10.855469c-2.617187-3.253906-7.371093-3.773438-10.625-1.160156-3.257812 2.613281-3.777343 7.371094-1.164062 10.625zm0 0"/><path d="m490.710938 198.609375h-147.667969v-177.320313c0-11.738281-9.554688-21.289062-21.292969-21.289062h-300.460938c-11.738281 0-21.289062 9.550781-21.289062 21.289062v213.101563c0 11.738281 9.550781 21.289063 21.289062 21.289063h98.035157v17.777343h-10.082031c-7.210938 0-12.84375 2.054688-16.75 6.101563-6.214844 6.445312-5.875 15.679687-5.652344 21.789062.054687 1.488282.109375 2.894532.050781 3.820313-.136719 2.085937.601563 4.128906 2.027344 5.652343 1.429687 1.523438 3.425781 2.386719 5.515625 2.386719h74.527344v35.8125c0 4.171875 3.382812 7.558594 7.558593 7.558594 4.171875 0 7.554688-3.386719 7.554688-7.558594v-94.863281c1.691406-1.273438 2.828125-3.234375 2.996093-5.46875h309.816407v155.519531h-312.8125v-24.847656c0-4.175781-3.382813-7.558594-7.558594-7.558594-4.171875 0-7.558594 3.382813-7.558594 7.558594v53.636719c0 11.738281 9.554688 21.289062 21.292969 21.289062h98.03125v17.78125h-10.082031c-7.207031 0-12.84375 2.050782-16.746094 6.097656-6.214844 6.449219-5.875 15.679688-5.652344 21.792969.054688 1.488281.105469 2.894531.046875 3.820313-.132812 2.082031.601563 4.128906 2.03125 5.652344 1.429688 1.523437 3.421875 2.386718 5.511719 2.386718h154.25c2.089844 0 4.082031-.863281 5.511719-2.386718 1.429687-1.523438 2.164062-3.570313 2.03125-5.652344-.058594-.921875-.023438-2.28125.015625-3.71875.160156-6.179688.40625-15.515625-5.886719-21.976563-3.890625-3.992187-9.433594-6.015625-16.480469-6.015625h-10.152343v-17.78125h98.03125c11.738281 0 21.292968-9.550781 21.292968-21.289062v-213.097656c-.003906-11.738282-9.554687-21.289063-21.292968-21.289063zm-469.421876-183.492187h300.460938c3.40625 0 6.175781 2.769531 6.175781 6.171874v13.839844l-90.285156-.363281c-4.195313.003906-7.574219 3.355469-7.589844 7.53125-.015625 4.171875 3.355469 7.570313 7.527344 7.585937l90.347656.363282v148.363281h-137.675781c-6.234375 0-11.832031 2.707031-15.726562 6.988281h-159.40625v-155.519531h192.152343c4.175781 0 7.558594-3.382813 7.558594-7.554687 0-4.175782-3.382813-7.558594-7.558594-7.558594h-192.152343v-13.675782c0-3.402343 2.769531-6.171874 6.171874-6.171874zm-6.171874 219.273437v-13.675781h153.839843v19.847656h-147.667969c-3.402343 0-6.171874-2.769531-6.171874-6.171875zm119.324218 21.289063h34.515625v17.777343h-34.515625zm-32.574218 42.414062c-.042969-3.21875.148437-6.632812 1.507812-8.042969.917969-.953125 3.003906-1.476562 5.867188-1.476562h59.714843v9.519531zm82.207031-64.519531v-13.675781c0-3.402344 2.769531-6.171876 6.175781-6.171876h300.460938c3.402343 0 6.171874 2.769532 6.171874 6.171876v13.675781zm224.410156 255.058593c1.398437 1.4375 1.65625 4.832032 1.652344 8.070313h-139.308594c-.046875-3.21875.148437-6.632813 1.507813-8.042969.917968-.953125 3-1.476562 5.863281-1.476562h124.628906c1.585937 0 4.425781.1875 5.65625 1.449218zm-30.925781-16.566406h-74.160156v-17.777344h74.160156zm119.324218-39.066406c0 3.402344-2.769531 6.171875-6.171874 6.171875h-300.460938c-3.40625 0-6.175781-2.769531-6.175781-6.171875v-13.675781h312.808593zm0 0"/></svg>